<svg xmlns="http://www.w3.org/2000/svg" viewBox="0 0 395.33 477.99"><defs><style>.cls-1{fill:#cb8d74;}.cls-2{fill:#d0997d;}.cls-3{fill:#f2f2f2;}.cls-4{fill:#aeaeab;}.cls-5{fill:#f2f2ed;opacity:0.74;}</style></defs><title>Recurso 4</title><g id="Capa_2" data-name="Capa 2"><g id="Capa_1-2" data-name="Capa 1"><rect class="cls-1" x="142.3" y="288.39" width="108.58" height="189.6"/><ellipse class="cls-2" cx="196.59" cy="203.59" rx="113.56" ry="137.3"/><rect x="92.32" y="94.13" width="209.44" height="56.51"/><rect x="92.32" y="66.33" width="209.44" height="74.66" rx="22.78"/><path d="M254.12,187.11c12.21,0,22.71,2.39,27.3,5.79a4.11,4.11,0,0,0,1.43-2.91c0-5.15-12.86-9.33-28.73-9.33s-28.74,4.18-28.74,9.33a4.15,4.15,0,0,0,1.43,2.91C231.41,189.5,241.9,187.11,254.12,187.11Z"/><path d="M145.54,187.11c12.22,0,22.71,2.39,27.3,5.79a4.11,4.11,0,0,0,1.43-2.91c0-5.15-12.86-9.33-28.73-9.33s-28.73,4.18-28.73,9.33a4.11,4.11,0,0,0,1.43,2.91C122.83,189.5,133.32,187.11,145.54,187.11Z"/><path d="M196.59,240.37c4.63,0,8.61,1.62,10.35,3.94a4,4,0,0,0,.55-2c0-3.5-4.88-6.34-10.9-6.34s-10.9,2.84-10.9,6.34a4,4,0,0,0,.54,2C188,242,192,240.37,196.59,240.37Z"/><rect x="92.17" y="105.02" width="209.44" height="56.51"/><rect x="92.17" y="77.21" width="209.44" height="74.66" rx="22.78"/><rect class="cls-3" x="157.67" y="280.39" width="80" height="8"/><path class="cls-3" d="M157.67,287.39v0c0,11.21,17.91,20.3,40,20.3s40-9.09,40-20.3v0Z"/><ellipse class="cls-2" cx="86.68" cy="237.99" rx="12.27" ry="28" transform="translate(-42.83 20.32) rotate(-10.74)"/><ellipse class="cls-2" cx="305.88" cy="237.99" rx="28" ry="12.27" transform="translate(15.06 494.17) rotate(-79.26)"/><path class="cls-4" d="M197.67,0C88.5,0,0,88.5,0,197.67S88.5,395.33,197.67,395.33s197.66-88.5,197.66-197.66S306.83,0,197.67,0Zm-1.24,389.4c-104.49,0-189.2-77.08-189.2-172.16S91.94,45.08,196.43,45.08s189.2,77.08,189.2,172.16S300.93,389.4,196.43,389.4Z"/><path class="cls-4" d="M359.5,478c-3.37-65.37-75.15-117.6-163.22-117.6S36.42,412.62,33.06,478Z"/><path class="cls-5" d="M98.26,202.26c5.66-67,37.18-119.09,70.41-116.36a51.41,51.41,0,0,0-20.8-6.49c-42.95-3.64-82.48,49-88.28,117.61s24.32,127.13,67.28,130.76a49.75,49.75,0,0,0,13.52-.73C111.53,316.74,93,263.92,98.26,202.26Z"/></g></g></svg>