<svg xmlns="http://www.w3.org/2000/svg" viewBox="0 0 408.33 482.49"><defs><style>.cls-1{fill:#cb8d74;}.cls-2{fill:#d0997d;}.cls-3{fill:#f2f2f2;}.cls-4,.cls-5{fill:#aeaeab;}.cls-4{stroke:#aeaeab;stroke-miterlimit:10;stroke-width:13px;}.cls-6{fill:#f2f2ed;opacity:0.74;}</style></defs><title>Recurso 5</title><g id="Capa_2" data-name="Capa 2"><g id="Capa_1-2" data-name="Capa 1"><rect class="cls-1" x="148.8" y="292.89" width="108.58" height="189.6"/><ellipse class="cls-2" cx="203.09" cy="214.56" rx="113.56" ry="130.83"/><rect x="97.55" y="106.63" width="210.72" height="56.51"/><path d="M130.24,78.83H275.57a32.69,32.69,0,0,1,32.69,32.69v11.75A30.22,30.22,0,0,1,278,153.49H130.24a32.69,32.69,0,0,1-32.69-32.69v-9.27A32.69,32.69,0,0,1,130.24,78.83Z"/><path d="M260.62,191.61c12.21,0,22.71,2.39,27.3,5.79a4.11,4.11,0,0,0,1.43-2.91c0-5.15-12.86-9.33-28.73-9.33s-28.74,4.18-28.74,9.33a4.15,4.15,0,0,0,1.43,2.91C237.91,194,248.4,191.61,260.62,191.61Z"/><path d="M152,191.61c12.22,0,22.71,2.39,27.3,5.79a4.11,4.11,0,0,0,1.43-2.91c0-5.15-12.86-9.33-28.73-9.33s-28.73,4.18-28.73,9.33a4.11,4.11,0,0,0,1.43,2.91C129.33,194,139.82,191.61,152,191.61Z"/><path d="M203.09,244.87c4.63,0,8.61,1.62,10.35,3.94a4,4,0,0,0,.55-2c0-3.5-4.88-6.34-10.9-6.34s-10.9,2.84-10.9,6.34a4,4,0,0,0,.54,2C194.47,246.49,198.45,244.87,203.09,244.87Z"/><rect x="97.67" y="110.52" width="210.59" height="56.51"/><rect x="98.67" y="91.71" width="208.44" height="74.66" rx="22.78"/><rect class="cls-3" x="164.17" y="284.89" width="80" height="8"/><path class="cls-3" d="M164.17,291.89v0c0,11.21,17.91,20.3,40,20.3s40-9.09,40-20.3v0Z"/><ellipse class="cls-2" cx="93.18" cy="242.49" rx="12.27" ry="28" transform="translate(-43.55 21.61) rotate(-10.74)"/><ellipse class="cls-2" cx="312.38" cy="242.49" rx="28" ry="12.27" transform="translate(15.92 504.22) rotate(-79.26)"/><path class="cls-4" d="M204.17,6.5C95,6.5,6.5,95,6.5,204.17S95,401.83,204.17,401.83s197.66-88.5,197.66-197.66S313.33,6.5,204.17,6.5Zm-1.24,389.4c-104.49,0-189.2-77.08-189.2-172.16S98.44,51.58,202.93,51.58s189.2,77.08,189.2,172.16S307.43,395.9,202.93,395.9Z"/><path class="cls-5" d="M366,482.49c-3.37-65.37-75.15-117.6-163.22-117.6S42.92,417.12,39.56,482.49Z"/><path class="cls-6" d="M103.28,203.66c10.09-66.81,48-116.48,84.63-111a62.21,62.21,0,0,0-22.67-8.22c-47.39-7.16-94.17,42.46-104.5,110.82S80.46,324.83,127.84,332a61.49,61.49,0,0,0,15,.36C111.47,319.65,94,265.13,103.28,203.66Z"/></g></g></svg>