<?xml version="1.0" encoding="UTF-8" standalone="no"?>
<!-- Created with Inkscape (http://www.inkscape.org/) by Marsupilami -->
<svg
   xmlns:svg="http://www.w3.org/2000/svg"
   xmlns="http://www.w3.org/2000/svg"
   version="1.0"
   width="1024"
   height="106"
   viewBox="0 0 213.01625 22.012501"
   id="svg2418">
  <defs
     id="defs2420" />
  <g
     transform="translate(82.508125,-12.99375)"
     id="layer1">
    <path
       d="M 0.4375,0 C 0.19625,0 0,0.1925 0,0.4375 L 0,21.53125 C 0,21.774999 0.19625,22 0.4375,22 L 21.84375,22 C 24.161249,21.999999 26.03125,20.0975 26.03125,17.78125 L 26.03125,9.34375 C 26.03125,7.0262501 24.16125,5.125 21.84375,5.125 L 4.25,5.125 L 4.25,0.4375 C 4.25,0.1925 4.05625,0 3.8125,0 L 0.4375,0 z M 75.5,0 C 75.253747,0 75.0625,0.205 75.0625,0.34375 L 75.0625,17.6875 C 75.062498,20.11125 76.96625,22 79.28125,22 L 91.34375,22 C 91.58875,22.000001 91.78125,21.805 91.78125,21.5625 L 91.78125,18.3125 C 91.781252,18.113749 91.65125,17.93125 91.46875,17.875 L 81.125,17.875 C 80.148751,17.875001 79.34375,17.10125 79.34375,16.125 L 79.34375,9.28125 L 91.375,9.28125 C 91.6125,9.2724999 91.78125,9.08125 91.78125,8.84375 L 91.78125,5.59375 C 91.781252,5.3499999 91.58875,5.15625 91.34375,5.15625 L 79.34375,5.15625 L 79.34375,0.4375 C 79.343748,0.19375 79.15,0 78.90625,0 L 75.5,0 z M 189.59375,0 C 189.35249,0 189.15625,0.19375 189.15625,0.4375 L 189.15625,5.15625 L 171.53125,5.15625 C 169.21249,5.1562498 167.34375,7.02625 167.34375,9.34375 L 167.34375,17.8125 C 167.34375,20.129999 169.2125,22 171.53125,22 L 192.9375,22 C 193.18124,22 193.375,21.81375 193.375,21.4375 L 193.375,0.3125 C 193.375,0.20125 193.18125,0 192.9375,0 L 189.59375,0 z M 196.71875,0 C 196.475,0 196.28125,0.1925 196.28125,0.375 L 196.28125,17.75 C 196.28125,20.12875 198.18251,22 200.5,22 L 212.5625,22 C 212.80626,22.000001 213.03125,21.805 213.03125,21.5625 L 213.03125,18.3125 C 213.03125,18.113749 212.89875,17.93125 212.71875,17.875 L 202.34375,17.875 C 201.37,17.875001 200.59375,17.10125 200.59375,16.125 L 200.59375,9.28125 L 212.59375,9.28125 C 212.83,9.2724999 213.03125,9.08125 213.03125,8.84375 L 213.03125,5.59375 C 213.03125,5.3499999 212.80626,5.15625 212.5625,5.15625 L 200.5625,5.15625 L 200.5625,0.4375 C 200.56251,0.19375 200.36625,0 200.125,0 L 196.71875,0 z M 32.96875,5.15625 C 30.650001,5.1562498 28.75,7.02625 28.75,9.34375 L 28.75,17.8125 C 28.75,20.13 30.65,22 32.96875,22 L 53.65625,22 C 53.892502,22 54.08375,21.83 54.09375,21.59375 L 54.09375,18.3125 C 54.092502,18.10625 53.97625,17.9525 53.78125,17.90625 L 34.71875,17.90625 C 33.74,17.90625 32.96875,17.13125 32.96875,16.15625 L 32.96875,15.40625 L 54.09375,15.40625 L 54.09375,9.34375 C 54.093751,7.0262499 52.19125,5.15625 49.875,5.15625 L 32.96875,5.15625 z M 61,5.15625 C 58.68375,5.1562498 56.8125,7.02625 56.8125,9.34375 L 56.8125,21.5625 C 56.812501,21.80625 57.005,22 57.25,22 L 60.5,22 C 60.742501,22 60.9375,21.80625 60.9375,21.5625 L 60.9375,11.0625 C 60.937499,10.08625 61.745,9.28125 62.71875,9.28125 L 73.28125,9.28125 C 73.519997,9.2737505 73.71875,9.0825 73.71875,8.84375 L 73.71875,5.59375 C 73.718749,5.35 73.525,5.15625 73.28125,5.15625 L 61,5.15625 z M 98.1875,5.15625 C 95.869999,5.1562498 94,7.02625 94,9.34375 L 94,21.5625 C 93.999999,21.80625 94.1925,22 94.4375,22 L 97.6875,22 C 97.931251,22 98.15625,21.80625 98.15625,21.5625 L 98.15625,11.0625 C 98.156247,10.08625 98.93125,9.28125 99.90625,9.28125 L 110.5,9.28125 C 110.735,9.2737505 110.90625,9.0825 110.90625,8.84375 L 110.90625,5.59375 C 110.90625,5.35 110.71,5.15625 110.46875,5.15625 L 98.1875,5.15625 z M 113,5.15625 C 112.755,5.1562498 112.5625,5.35 112.5625,5.59375 L 112.5625,8.84375 C 112.5625,9.0875 112.755,9.28125 113,9.28125 L 130.125,9.28125 L 130.25,9.28125 C 131.22625,9.28125 132.03125,10.36875 132.03125,11.34375 L 132.03125,11.53125 C 132.03125,11.53125 115.42,11.53125 115.3125,11.53125 C 112.38375,11.53125 110,13.81125 110,16.75 C 110,19.69 112.38375,22 115.3125,22 C 115.385,21.999999 135.71875,22 135.71875,22 C 135.9625,21.999999 136.15625,21.8125 136.15625,21.65625 L 136.15625,9.4375 C 136.15625,7.0325003 134.28875,5.15625 131.96875,5.15625 L 113,5.15625 z M 139.25,5.15625 C 139.00376,5.1562498 138.8125,5.35 138.8125,5.59375 L 138.8125,21.5625 C 138.8125,21.80625 139.00375,22 139.25,22 L 142.65625,22 C 142.9,22 143.125,21.80625 143.125,21.5625 L 143.125,9.28125 L 158.59375,9.28125 C 159.57,9.2812505 160.34375,10.08625 160.34375,11.0625 L 160.34375,21.5625 C 160.34375,21.80625 160.53875,22 160.78125,22 L 164.1875,22 C 164.42875,22 164.65625,21.80625 164.65625,21.5625 L 164.65625,9.34375 C 164.65625,7.0262499 162.7525,5.15625 160.4375,5.15625 L 139.25,5.15625 z M 34.71875,9.28125 L 34.78125,9.28125 L 48.03125,9.28125 L 48.1875,9.28125 C 49.166251,9.28125 49.9375,10.4925 49.9375,11.46875 L 49.9375,11.78125 L 32.96875,11.78125 L 32.96875,11.46875 C 32.96875,10.4925 33.74,9.28125 34.71875,9.28125 z M 173.25,9.28125 L 189.15625,9.28125 L 189.15625,17.84375 L 173.25,17.84375 C 172.275,17.843749 171.46875,17.06875 171.46875,16.09375 L 171.46875,11.125 C 171.46875,10.1475 172.27625,9.28125 173.25,9.28125 z M 4.21875,9.3125 L 20.125,9.3125 C 21.1,9.3125001 21.90625,10.2125 21.90625,11.1875 L 21.90625,16.09375 C 21.90625,17.06875 21.10125,17.84375 20.125,17.84375 L 4.21875,17.84375 L 4.21875,9.3125 z M 115.28125,15.21875 L 132.03125,15.21875 L 132.03125,17.875 L 115.3125,17.875 C 114.48125,17.875 113.8125,17.34 113.8125,16.53125 C 113.8125,15.722499 114.45375,15.22 115.28125,15.21875 z "
       transform="translate(-82.508125,12.99375)"
       style="fill:#231f20;fill-opacity:1;fill-rule:nonzero;stroke:none"
       id="path17614" />
  </g>
</svg>
