<svg xmlns="http://www.w3.org/2000/svg" viewBox="0 0 97.13 97.13"><defs><style>.cls-1{fill:#d85226;}.cls-2{fill:#d86524;}.cls-3{fill:#d89526;}</style></defs><title>Recurso 7</title><g id="Capa_2" data-name="Capa 2"><g id="Capa_1-2" data-name="Capa 1"><circle class="cls-1" cx="48.56" cy="48.56" r="48.56"/><circle class="cls-2" cx="33.61" cy="21.21" r="12.9"/><path class="cls-3" d="M85.18,35.08H78.05v-.17a7.34,7.34,0,0,0-7.34-7.34H43.84a7.35,7.35,0,0,0,0,14.69H51c0,.05,0,.11,0,.16h0a7.35,7.35,0,0,0,7.35,7.35H85.18a7.35,7.35,0,0,0,7.34-7.35h0A7.34,7.34,0,0,0,85.18,35.08Z"/><circle class="cls-2" cx="75.84" cy="63.56" r="8.72"/><circle class="cls-3" cx="20.72" cy="28.49" r="7.4"/><path class="cls-3" d="M57.38,64.8a3.4,3.4,0,0,0,3.35-4A3.46,3.46,0,0,0,57.28,58H10.49A3.46,3.46,0,0,0,7,60.84a3.4,3.4,0,0,0,3.35,4H24.86a1.52,1.52,0,0,1,1.52,1.53h0a1.52,1.52,0,0,1-1.52,1.52h-5.4a4.78,4.78,0,0,0-4.78,4.78h0a4.78,4.78,0,0,0,4.78,4.78H54.81a4.78,4.78,0,0,0,4.77-4.78h0a4.78,4.78,0,0,0-4.77-4.78h-9.5a1.52,1.52,0,0,1-1.53-1.52h0a1.52,1.52,0,0,1,1.53-1.53Z"/></g></g></svg>