<svg xmlns="http://www.w3.org/2000/svg" viewBox="0 0 149.63 149.63"><defs><style>.cls-1{fill:#229730;}.cls-2{fill:#160f82;}.cls-3{fill:#fff;opacity:0.89;}.cls-4{fill:#bfbbd6;}</style></defs><title>Recurso 6</title><g id="Capa_2" data-name="Capa 2"><g id="Capa_1-2" data-name="Capa 1"><path class="cls-1" d="M125.54,94.83a4.39,4.39,0,0,0-1.22-.18,3.6,3.6,0,0,1-3.81-3.34V89.37A3.6,3.6,0,0,1,124.32,86H137a3.6,3.6,0,0,0,3.81-3.34V73.4A3.6,3.6,0,0,0,137,70.06H52.62a3.6,3.6,0,0,0-3.81,3.34v9.28A3.6,3.6,0,0,0,52.62,86H82.57a3.61,3.61,0,0,1,3.81,3.35v1.94a3.6,3.6,0,0,1-3.81,3.34H65.34A3.61,3.61,0,0,0,61.52,98v.21a3.61,3.61,0,0,0,3.82,3.35H84.79l.24.06.09,0,.21,0,.17,0,.16,0h17.58a3.61,3.61,0,0,1,3.81,3.35V107a3.6,3.6,0,0,1-3.81,3.34H89.84a6.7,6.7,0,0,1-6.43,4.81H82a3.48,3.48,0,0,1,0,7H69.48V123a3.61,3.61,0,0,0,3.82,3.34h55.76a74.87,74.87,0,0,0,17.74-31.1,4.14,4.14,0,0,0-1.81-.4Z"/><path class="cls-1" d="M37.19,50.39H59.57a4.25,4.25,0,0,0-1.29-.2H41.06a3.61,3.61,0,0,1-3.82-3.34v-2a3.61,3.61,0,0,1,3.82-3.34H71a3.6,3.6,0,0,0,3.81-3.34V28.94A3.6,3.6,0,0,0,71,25.59H18.47A74.73,74.73,0,0,0,2.12,57.09H30.48A6.71,6.71,0,0,1,37.19,50.39Z"/><path class="cls-1" d="M.55,65.7a74,74,0,0,1,1.57-8.6A74,74,0,0,0,.55,65.7Z"/><path class="cls-2" d="M69.48,123v-.86h-33a3.48,3.48,0,0,1,0-7H11.82c.32.49.63,1,1,1.47,1.34,2,2.78,3.91,4.3,5.76.77.93,1.55,1.83,2.36,2.72a75.76,75.76,0,0,0,6.41,6.26c.91.79,1.83,1.55,2.77,2.29.48.37.95.74,1.43,1.09,1,.72,1.94,1.42,2.93,2.09l.77.5A162.59,162.59,0,0,1,79.37,131a165.1,165.1,0,0,1,38.83,4.54c-.61.44-1.22.9-1.85,1.32a75.29,75.29,0,0,1-9.4,5.4,73.47,73.47,0,0,1-10.18,4c-1.18.37-2.36.7-3.55,1a74.5,74.5,0,0,1-18.53,2.35h.12c.66,0,1.32,0,2,0l.64,0,1.31-.05.77-.05,1.17-.08.81-.07,1.11-.1.84-.1,1.08-.13.83-.11,1.06-.16.84-.14,1.05-.18.83-.15,1-.21.83-.18,1-.23.82-.2,1-.26.8-.21,1-.29.79-.23,1-.31.78-.25,1-.34.76-.27,1-.36.74-.29,1-.39.73-.3,1-.42.71-.31,1-.45.69-.32,1-.48.66-.33,1-.52.64-.33,1-.55.61-.34,1-.59.57-.33,1-.64.53-.33,1.05-.68.49-.32,1.07-.74.43-.3c.38-.26.75-.53,1.12-.81l.37-.26,1.18-.9.27-.21c.44-.34.87-.69,1.3-1.05l.13-.09c.53-.44,1-.89,1.57-1.34.12-.1.24-.2.35-.31q.77-.66,1.5-1.35l.22-.2,1.31-1.26.32-.32c.47-.46.93-.94,1.39-1.42a.57.57,0,0,0,.11-.11H73.3A3.61,3.61,0,0,1,69.48,123Z"/><path class="cls-1" d="M30.48,57.09h27.8a3.6,3.6,0,0,0,3.82-3.34v-.22a3.4,3.4,0,0,0-2.53-3.14H37.19A6.71,6.71,0,0,0,30.48,57.09Z"/><path class="cls-3" d="M30.48,57.09h27.8a3.6,3.6,0,0,0,3.82-3.34v-.22a3.4,3.4,0,0,0-2.53-3.14H37.19A6.71,6.71,0,0,0,30.48,57.09Z"/><path class="cls-2" d="M62.1,53.53v.22a3.6,3.6,0,0,1-3.82,3.34H30.48a6.71,6.71,0,0,0,6.71,6.71H114.4a6.71,6.71,0,1,0,0-13.41H59.57A3.4,3.4,0,0,1,62.1,53.53Z"/><path class="cls-3" d="M62.1,53.53v.22a3.6,3.6,0,0,1-3.82,3.34H30.48a6.71,6.71,0,0,0,6.71,6.71H114.4a6.71,6.71,0,1,0,0-13.41H59.57A3.4,3.4,0,0,1,62.1,53.53Z"/><path class="cls-1" d="M69.48,113.71v8.42H82a3.48,3.48,0,0,0,0-7h1.38a6.7,6.7,0,0,0,6.43-4.81H73.3A3.61,3.61,0,0,0,69.48,113.71Z"/><path class="cls-3" d="M69.48,113.71v8.42H82a3.48,3.48,0,0,0,0-7h1.38a6.7,6.7,0,0,0,6.43-4.81H73.3A3.61,3.61,0,0,0,69.48,113.71Z"/><path class="cls-2" d="M33,118.65a3.48,3.48,0,0,0,3.48,3.48h33v-8.42a3.61,3.61,0,0,1,3.82-3.35H89.84a6.61,6.61,0,0,0,.28-1.9,6.7,6.7,0,0,0-6.71-6.7H6.21a6.45,6.45,0,0,0-1.17.11q1.07,2.75,2.34,5.38a74.7,74.7,0,0,0,4.44,7.92H36.51A3.48,3.48,0,0,0,33,118.65Z"/><path class="cls-3" d="M33,118.65a3.48,3.48,0,0,0,3.48,3.48h33v-8.42a3.61,3.61,0,0,1,3.82-3.35H89.84a6.61,6.61,0,0,0,.28-1.9,6.7,6.7,0,0,0-6.71-6.7H6.21a6.45,6.45,0,0,0-1.17.11q1.07,2.75,2.34,5.38a74.7,74.7,0,0,0,4.44,7.92H36.51A3.48,3.48,0,0,0,33,118.65Z"/><path class="cls-4" d="M118.5,14.1c-.62-.45-1.23-.9-1.86-1.32a73.25,73.25,0,0,0-9.39-5.4,74.92,74.92,0,0,0-10.19-4c-1.17-.36-2.35-.7-3.55-1A74.86,74.86,0,0,0,74.81,0c-.67,0-1.35,0-2,0l-.66,0c-.45,0-.9,0-1.34.06L70,.16,68.79.24,68,.31,66.81.43,66,.52,64.84.66,64,.78,62.87,1l-.81.14-1.14.2-.79.15L59,1.69l-.74.16L57,2.14l-.67.16L55,2.66l-.5.14C53.22,3.15,52,3.54,50.74,4l-.09,0-1.73.61-.4.16-1.4.53-.5.21L45.34,6l-.53.24-1.23.55-.53.25-1.21.58-.52.25-1.22.63-.48.25c-.42.22-.83.45-1.24.68L38,9.7c-.45.25-.89.51-1.32.77l-.32.18-1.49.92-.12.08c-.29.18-.57.39-.86.58a162.78,162.78,0,0,0,45.81,6.41A165.19,165.19,0,0,0,118.5,14.1Z"/><path class="cls-2" d="M148.46,61.57c-.22-1.23-.47-2.45-.75-3.65a73.61,73.61,0,0,0-3.27-10.54c-.45-1.13-.92-2.25-1.42-3.35-1-2.21-2.1-4.37-3.3-6.46-.61-1-1.23-2.07-1.88-3.08-.32-.51-.65-1-1-1.51-.67-1-1.37-2-2.09-2.93-.35-.48-.72-.95-1.09-1.43-.74-.94-1.5-1.86-2.29-2.77a75.76,75.76,0,0,0-6.26-6.41c-.89-.81-1.79-1.59-2.72-2.36-1.26-1-2.57-2-3.9-3a165.19,165.19,0,0,1-38.84,4.54,162.78,162.78,0,0,1-45.81-6.41c-.79.52-1.59,1-2.37,1.59-1.06.76-2.09,1.53-3.11,2.34l-.08.06L26.9,17.36l-.19.16L25.45,18.6l-.23.21c-.41.35-.8.71-1.2,1.08l-.24.22-1.16,1.11-.23.22c-.39.38-.77.77-1.15,1.16l-.19.2c-.4.41-.79.83-1.18,1.25l-.13.13-1.27,1.41H71a3.6,3.6,0,0,1,3.81,3.35v9.28A3.6,3.6,0,0,1,71,41.56H41.06a3.61,3.61,0,0,0-3.82,3.34v2a3.61,3.61,0,0,0,3.82,3.34H58.28a4.25,4.25,0,0,1,1.29.2H114.4a6.71,6.71,0,1,1,0,13.41H37.19a6.71,6.71,0,0,1-6.71-6.71H2.12A74,74,0,0,0,.55,65.7l0,.31c-.07.59-.13,1.17-.19,1.76,0,.19,0,.38,0,.56,0,.51-.08,1-.11,1.54,0,.22,0,.44-.05.66,0,.51,0,1-.06,1.53l0,.62q0,1.06,0,2.13a74.86,74.86,0,0,0,2.36,18.7c.3,1.2.64,2.38,1,3.55q.77,2.44,1.68,4.81a6.45,6.45,0,0,1,1.17-.11h77.2a6.7,6.7,0,0,1,6.71,6.7,6.61,6.61,0,0,1-.28,1.9h13.4a3.6,3.6,0,0,0,3.81-3.34v-1.94a3.61,3.61,0,0,0-3.81-3.35H85.66l-.16,0-.17,0-.21,0-.09,0-.24-.06H65.34a3.61,3.61,0,0,1-3.82-3.35V98a3.61,3.61,0,0,1,3.82-3.35H82.57a3.6,3.6,0,0,0,3.81-3.34V89.37A3.61,3.61,0,0,0,82.57,86H52.62a3.6,3.6,0,0,1-3.81-3.34V73.4a3.6,3.6,0,0,1,3.81-3.34H137a3.6,3.6,0,0,1,3.81,3.34v9.28A3.6,3.6,0,0,1,137,86H124.32a3.6,3.6,0,0,0-3.81,3.35v1.94a3.6,3.6,0,0,0,3.81,3.34,4.39,4.39,0,0,1,1.22.18H145a4.14,4.14,0,0,1,1.81.4h0c0-.14.07-.29.11-.44.16-.58.32-1.17.47-1.77.05-.19.09-.37.14-.56.15-.61.29-1.22.42-1.84,0-.15.07-.31.1-.46.16-.76.3-1.52.44-2.28l.06-.38c.11-.64.21-1.29.3-1.93l.09-.64c.09-.66.17-1.31.24-2,0-.12,0-.23,0-.36.08-.77.14-1.54.2-2.32,0-.2,0-.4,0-.6,0-.6.07-1.21.09-1.81l0-.68c0-.78,0-1.57,0-2.37A75,75,0,0,0,148.46,61.57Z"/><path class="cls-4" d="M96.77,146.26a73.47,73.47,0,0,0,10.18-4,75.29,75.29,0,0,0,9.4-5.4c.63-.42,1.24-.88,1.85-1.32A165.1,165.1,0,0,0,79.37,131a162.59,162.59,0,0,0-45.62,6.36l-.19.05.85.58.13.07c.49.32,1,.62,1.48.92l.32.19,1.32.77.42.23,1.25.69.48.25,1.21.62.52.26,1.21.58.54.25c.4.19.81.37,1.23.55l.53.24,1.28.53.5.2c.46.19.93.36,1.39.54l.4.15,1.73.62.09,0c1.23.42,2.48.8,3.74,1.16l.51.13,1.36.37.66.16,1.22.29.75.16c.38.08.77.17,1.16.24s.52.1.79.15.75.14,1.13.21l.82.13,1.13.18.83.11,1.14.14.83.1,1.16.11.83.08,1.21.08.78.05,1.35,0,.66,0c.67,0,1.34,0,2,0h.17a74.5,74.5,0,0,0,18.53-2.35C94.41,147,95.59,146.63,96.77,146.26Z"/></g></g></svg>